<?xml version="1.0" encoding="UTF-8" standalone="no"?>
<!DOCTYPE svg PUBLIC "-//W3C//DTD SVG 1.1//EN"
 "http://www.w3.org/Graphics/SVG/1.1/DTD/svg11.dtd">
<!-- Generated by graphviz version 2.50.0 (0)
 -->
<!-- Pages: 1 -->
<svg width="752pt" height="476pt"
 viewBox="0.00 0.00 752.38 476.00" xmlns="http://www.w3.org/2000/svg" xmlns:xlink="http://www.w3.org/1999/xlink">
<g id="graph0" class="graph" transform="scale(1 1) rotate(0) translate(4 472)">
<polygon fill="white" stroke="transparent" points="-4,4 -4,-472 748.38,-472 748.38,4 -4,4"/>
<!-- [root] aws_eip.one (expand) -->
<g id="node1" class="node">
<title>[root] aws_eip.one (expand)</title>
<polygon fill="none" stroke="black" points="204,-324 119,-324 119,-288 204,-288 204,-324"/>
<text text-anchor="middle" x="161.5" y="-302.3" font-family="Times,serif" font-size="14.00">aws_eip.one</text>
</g>
<!-- [root] aws_internet_gateway.gw (expand) -->
<g id="node3" class="node">
<title>[root] aws_internet_gateway.gw (expand)</title>
<polygon fill="none" stroke="black" points="365,-180 206,-180 206,-144 365,-144 365,-180"/>
<text text-anchor="middle" x="285.5" y="-158.3" font-family="Times,serif" font-size="14.00">aws_internet_gateway.gw</text>
</g>
<!-- [root] aws_eip.one (expand)&#45;&gt;[root] aws_internet_gateway.gw (expand) -->
<g id="edge1" class="edge">
<title>[root] aws_eip.one (expand)&#45;&gt;[root] aws_internet_gateway.gw (expand)</title>
<path fill="none" stroke="black" d="M159.75,-287.81C158.71,-268.45 159.92,-236.97 175.5,-216 185.55,-202.47 199.97,-192.23 215.07,-184.55"/>
<polygon fill="black" stroke="black" points="216.98,-187.52 224.53,-180.09 213.99,-181.19 216.98,-187.52"/>
</g>
<!-- [root] aws_network_interface.web&#45;server&#45;nic (expand) -->
<g id="node4" class="node">
<title>[root] aws_network_interface.web&#45;server&#45;nic (expand)</title>
<polygon fill="none" stroke="black" points="636,-252 405,-252 405,-216 636,-216 636,-252"/>
<text text-anchor="middle" x="520.5" y="-230.3" font-family="Times,serif" font-size="14.00">aws_network_interface.web&#45;server&#45;nic</text>
</g>
<!-- [root] aws_eip.one (expand)&#45;&gt;[root] aws_network_interface.web&#45;server&#45;nic (expand) -->
<g id="edge2" class="edge">
<title>[root] aws_eip.one (expand)&#45;&gt;[root] aws_network_interface.web&#45;server&#45;nic (expand)</title>
<path fill="none" stroke="black" d="M204.29,-291.2C208.4,-290.05 212.52,-288.96 216.5,-288 274.48,-274.04 339.52,-262.2 394.52,-253.28"/>
<polygon fill="black" stroke="black" points="395.35,-256.69 404.67,-251.65 394.24,-249.78 395.35,-256.69"/>
</g>
<!-- [root] aws_instance.web&#45;server&#45;ec2 (expand) -->
<g id="node2" class="node">
<title>[root] aws_instance.web&#45;server&#45;ec2 (expand)</title>
<polygon fill="none" stroke="black" points="609.5,-324 431.5,-324 431.5,-288 609.5,-288 609.5,-324"/>
<text text-anchor="middle" x="520.5" y="-302.3" font-family="Times,serif" font-size="14.00">aws_instance.web&#45;server&#45;ec2</text>
</g>
<!-- [root] aws_instance.web&#45;server&#45;ec2 (expand)&#45;&gt;[root] aws_network_interface.web&#45;server&#45;nic (expand) -->
<g id="edge3" class="edge">
<title>[root] aws_instance.web&#45;server&#45;ec2 (expand)&#45;&gt;[root] aws_network_interface.web&#45;server&#45;nic (expand)</title>
<path fill="none" stroke="black" d="M520.5,-287.7C520.5,-279.98 520.5,-270.71 520.5,-262.11"/>
<polygon fill="black" stroke="black" points="524,-262.1 520.5,-252.1 517,-262.1 524,-262.1"/>
</g>
<!-- [root] aws_vpc.prod&#45;vpc (expand) -->
<g id="node9" class="node">
<title>[root] aws_vpc.prod&#45;vpc (expand)</title>
<polygon fill="none" stroke="black" points="539.5,-108 423.5,-108 423.5,-72 539.5,-72 539.5,-108"/>
<text text-anchor="middle" x="481.5" y="-86.3" font-family="Times,serif" font-size="14.00">aws_vpc.prod&#45;vpc</text>
</g>
<!-- [root] aws_internet_gateway.gw (expand)&#45;&gt;[root] aws_vpc.prod&#45;vpc (expand) -->
<g id="edge4" class="edge">
<title>[root] aws_internet_gateway.gw (expand)&#45;&gt;[root] aws_vpc.prod&#45;vpc (expand)</title>
<path fill="none" stroke="black" d="M333.2,-143.97C360.58,-134.19 395.16,-121.84 424.03,-111.52"/>
<polygon fill="black" stroke="black" points="425.35,-114.77 433.59,-108.11 423,-108.18 425.35,-114.77"/>
</g>
<!-- [root] aws_security_group.allow_web (expand) -->
<g id="node7" class="node">
<title>[root] aws_security_group.allow_web (expand)</title>
<polygon fill="none" stroke="black" points="576.5,-180 386.5,-180 386.5,-144 576.5,-144 576.5,-180"/>
<text text-anchor="middle" x="481.5" y="-158.3" font-family="Times,serif" font-size="14.00">aws_security_group.allow_web</text>
</g>
<!-- [root] aws_network_interface.web&#45;server&#45;nic (expand)&#45;&gt;[root] aws_security_group.allow_web (expand) -->
<g id="edge5" class="edge">
<title>[root] aws_network_interface.web&#45;server&#45;nic (expand)&#45;&gt;[root] aws_security_group.allow_web (expand)</title>
<path fill="none" stroke="black" d="M510.86,-215.7C506.37,-207.64 500.94,-197.89 495.98,-188.98"/>
<polygon fill="black" stroke="black" points="498.95,-187.14 491.03,-180.1 492.84,-190.54 498.95,-187.14"/>
</g>
<!-- [root] aws_subnet.subnet&#45;1 (expand) -->
<g id="node8" class="node">
<title>[root] aws_subnet.subnet&#45;1 (expand)</title>
<polygon fill="none" stroke="black" points="728,-180 595,-180 595,-144 728,-144 728,-180"/>
<text text-anchor="middle" x="661.5" y="-158.3" font-family="Times,serif" font-size="14.00">aws_subnet.subnet&#45;1</text>
</g>
<!-- [root] aws_network_interface.web&#45;server&#45;nic (expand)&#45;&gt;[root] aws_subnet.subnet&#45;1 (expand) -->
<g id="edge6" class="edge">
<title>[root] aws_network_interface.web&#45;server&#45;nic (expand)&#45;&gt;[root] aws_subnet.subnet&#45;1 (expand)</title>
<path fill="none" stroke="black" d="M554.99,-215.88C573.94,-206.47 597.63,-194.71 617.86,-184.67"/>
<polygon fill="black" stroke="black" points="619.47,-187.77 626.87,-180.19 616.36,-181.5 619.47,-187.77"/>
</g>
<!-- [root] aws_route_table.prod&#45;route&#45;table (expand) -->
<g id="node5" class="node">
<title>[root] aws_route_table.prod&#45;route&#45;table (expand)</title>
<polygon fill="none" stroke="black" points="386.5,-252 184.5,-252 184.5,-216 386.5,-216 386.5,-252"/>
<text text-anchor="middle" x="285.5" y="-230.3" font-family="Times,serif" font-size="14.00">aws_route_table.prod&#45;route&#45;table</text>
</g>
<!-- [root] aws_route_table.prod&#45;route&#45;table (expand)&#45;&gt;[root] aws_internet_gateway.gw (expand) -->
<g id="edge7" class="edge">
<title>[root] aws_route_table.prod&#45;route&#45;table (expand)&#45;&gt;[root] aws_internet_gateway.gw (expand)</title>
<path fill="none" stroke="black" d="M285.5,-215.7C285.5,-207.98 285.5,-198.71 285.5,-190.11"/>
<polygon fill="black" stroke="black" points="289,-190.1 285.5,-180.1 282,-190.1 289,-190.1"/>
</g>
<!-- [root] aws_route_table_association.a (expand) -->
<g id="node6" class="node">
<title>[root] aws_route_table_association.a (expand)</title>
<polygon fill="none" stroke="black" points="413,-324 226,-324 226,-288 413,-288 413,-324"/>
<text text-anchor="middle" x="319.5" y="-302.3" font-family="Times,serif" font-size="14.00">aws_route_table_association.a</text>
</g>
<!-- [root] aws_route_table_association.a (expand)&#45;&gt;[root] aws_route_table.prod&#45;route&#45;table (expand) -->
<g id="edge8" class="edge">
<title>[root] aws_route_table_association.a (expand)&#45;&gt;[root] aws_route_table.prod&#45;route&#45;table (expand)</title>
<path fill="none" stroke="black" d="M311.1,-287.7C307.23,-279.73 302.55,-270.1 298.26,-261.26"/>
<polygon fill="black" stroke="black" points="301.33,-259.57 293.81,-252.1 295.03,-262.63 301.33,-259.57"/>
</g>
<!-- [root] aws_route_table_association.a (expand)&#45;&gt;[root] aws_subnet.subnet&#45;1 (expand) -->
<g id="edge9" class="edge">
<title>[root] aws_route_table_association.a (expand)&#45;&gt;[root] aws_subnet.subnet&#45;1 (expand)</title>
<path fill="none" stroke="black" d="M413.25,-289.51C416.37,-289 419.46,-288.5 422.5,-288 472.04,-279.91 609.69,-287.18 645.5,-252 661.64,-236.15 664.68,-209.94 664.25,-190.06"/>
<polygon fill="black" stroke="black" points="667.75,-189.86 663.74,-180.05 660.76,-190.22 667.75,-189.86"/>
</g>
<!-- [root] aws_security_group.allow_web (expand)&#45;&gt;[root] aws_vpc.prod&#45;vpc (expand) -->
<g id="edge10" class="edge">
<title>[root] aws_security_group.allow_web (expand)&#45;&gt;[root] aws_vpc.prod&#45;vpc (expand)</title>
<path fill="none" stroke="black" d="M481.5,-143.7C481.5,-135.98 481.5,-126.71 481.5,-118.11"/>
<polygon fill="black" stroke="black" points="485,-118.1 481.5,-108.1 478,-118.1 485,-118.1"/>
</g>
<!-- [root] aws_subnet.subnet&#45;1 (expand)&#45;&gt;[root] aws_vpc.prod&#45;vpc (expand) -->
<g id="edge11" class="edge">
<title>[root] aws_subnet.subnet&#45;1 (expand)&#45;&gt;[root] aws_vpc.prod&#45;vpc (expand)</title>
<path fill="none" stroke="black" d="M617.47,-143.88C592.53,-134.18 561.16,-121.98 534.84,-111.74"/>
<polygon fill="black" stroke="black" points="535.98,-108.43 525.39,-108.07 533.44,-114.95 535.98,-108.43"/>
</g>
<!-- [root] provider[&quot;registry.terraform.io/hashicorp/aws&quot;] -->
<g id="node11" class="node">
<title>[root] provider[&quot;registry.terraform.io/hashicorp/aws&quot;]</title>
<polygon fill="none" stroke="black" points="481.5,-36 218.74,-18 481.5,0 744.26,-18 481.5,-36"/>
<text text-anchor="middle" x="481.5" y="-14.3" font-family="Times,serif" font-size="14.00">provider[&quot;registry.terraform.io/hashicorp/aws&quot;]</text>
</g>
<!-- [root] aws_vpc.prod&#45;vpc (expand)&#45;&gt;[root] provider[&quot;registry.terraform.io/hashicorp/aws&quot;] -->
<g id="edge12" class="edge">
<title>[root] aws_vpc.prod&#45;vpc (expand)&#45;&gt;[root] provider[&quot;registry.terraform.io/hashicorp/aws&quot;]</title>
<path fill="none" stroke="black" d="M481.5,-71.7C481.5,-63.98 481.5,-54.71 481.5,-46.11"/>
<polygon fill="black" stroke="black" points="485,-46.1 481.5,-36.1 478,-46.1 485,-46.1"/>
</g>
<!-- [root] output.server_public_ip -->
<g id="node10" class="node">
<title>[root] output.server_public_ip</title>
<polygon fill="none" stroke="black" points="143,-396 0,-396 0,-360 149,-360 149,-390 143,-396"/>
<polyline fill="none" stroke="black" points="143,-396 143,-390 "/>
<polyline fill="none" stroke="black" points="149,-390 143,-390 "/>
<text text-anchor="middle" x="74.5" y="-374.3" font-family="Times,serif" font-size="14.00">output.server_public_ip</text>
</g>
<!-- [root] output.server_public_ip&#45;&gt;[root] aws_eip.one (expand) -->
<g id="edge13" class="edge">
<title>[root] output.server_public_ip&#45;&gt;[root] aws_eip.one (expand)</title>
<path fill="none" stroke="black" d="M96.01,-359.7C106.96,-350.88 120.45,-340.03 132.32,-330.47"/>
<polygon fill="black" stroke="black" points="134.64,-333.1 140.24,-324.1 130.26,-327.65 134.64,-333.1"/>
</g>
<!-- [root] provider[&quot;registry.terraform.io/hashicorp/aws&quot;] (close) -->
<g id="node12" class="node">
<title>[root] provider[&quot;registry.terraform.io/hashicorp/aws&quot;] (close)</title>
<ellipse fill="none" stroke="black" cx="402.5" cy="-378" rx="235.06" ry="18"/>
<text text-anchor="middle" x="402.5" y="-374.3" font-family="Times,serif" font-size="14.00">[root] provider[&quot;registry.terraform.io/hashicorp/aws&quot;] (close)</text>
</g>
<!-- [root] provider[&quot;registry.terraform.io/hashicorp/aws&quot;] (close)&#45;&gt;[root] aws_eip.one (expand) -->
<g id="edge14" class="edge">
<title>[root] provider[&quot;registry.terraform.io/hashicorp/aws&quot;] (close)&#45;&gt;[root] aws_eip.one (expand)</title>
<path fill="none" stroke="black" d="M343.35,-360.51C306.75,-350.21 258.83,-336.57 216.5,-324 215.62,-323.74 214.73,-323.47 213.84,-323.21"/>
<polygon fill="black" stroke="black" points="214.69,-319.81 204.11,-320.27 212.67,-326.51 214.69,-319.81"/>
</g>
<!-- [root] provider[&quot;registry.terraform.io/hashicorp/aws&quot;] (close)&#45;&gt;[root] aws_instance.web&#45;server&#45;ec2 (expand) -->
<g id="edge15" class="edge">
<title>[root] provider[&quot;registry.terraform.io/hashicorp/aws&quot;] (close)&#45;&gt;[root] aws_instance.web&#45;server&#45;ec2 (expand)</title>
<path fill="none" stroke="black" d="M431.06,-360.05C446.6,-350.84 466.02,-339.32 482.79,-329.37"/>
<polygon fill="black" stroke="black" points="484.97,-332.14 491.79,-324.03 481.4,-326.12 484.97,-332.14"/>
</g>
<!-- [root] provider[&quot;registry.terraform.io/hashicorp/aws&quot;] (close)&#45;&gt;[root] aws_route_table_association.a (expand) -->
<g id="edge16" class="edge">
<title>[root] provider[&quot;registry.terraform.io/hashicorp/aws&quot;] (close)&#45;&gt;[root] aws_route_table_association.a (expand)</title>
<path fill="none" stroke="black" d="M382.41,-360.05C371.88,-351.18 358.83,-340.17 347.34,-330.48"/>
<polygon fill="black" stroke="black" points="349.6,-327.8 339.69,-324.03 345.08,-333.15 349.6,-327.8"/>
</g>
<!-- [root] root -->
<g id="node13" class="node">
<title>[root] root</title>
<ellipse fill="none" stroke="black" cx="238.5" cy="-450" rx="48.19" ry="18"/>
<text text-anchor="middle" x="238.5" y="-446.3" font-family="Times,serif" font-size="14.00">[root] root</text>
</g>
<!-- [root] root&#45;&gt;[root] output.server_public_ip -->
<g id="edge17" class="edge">
<title>[root] root&#45;&gt;[root] output.server_public_ip</title>
<path fill="none" stroke="black" d="M208.04,-436C184.42,-425.92 151.22,-411.74 123.82,-400.05"/>
<polygon fill="black" stroke="black" points="124.97,-396.74 114.4,-396.03 122.23,-403.18 124.97,-396.74"/>
</g>
<!-- [root] root&#45;&gt;[root] provider[&quot;registry.terraform.io/hashicorp/aws&quot;] (close) -->
<g id="edge18" class="edge">
<title>[root] root&#45;&gt;[root] provider[&quot;registry.terraform.io/hashicorp/aws&quot;] (close)</title>
<path fill="none" stroke="black" d="M268.96,-436C292.74,-425.85 326.25,-411.55 353.75,-399.81"/>
<polygon fill="black" stroke="black" points="355.38,-402.92 363.2,-395.77 352.63,-396.48 355.38,-402.92"/>
</g>
</g>
</svg>
