<?xml version="1.0" encoding="UTF-8" standalone="no"?>
<!DOCTYPE svg PUBLIC "-//W3C//DTD SVG 1.1//EN"
 "http://www.w3.org/Graphics/SVG/1.1/DTD/svg11.dtd">
<!-- Generated by graphviz version 2.43.0 (0)
 -->
<!-- Title: %3 Pages: 1 -->
<svg width="865pt" height="548pt"
 viewBox="0.00 0.00 865.00 548.00" xmlns="http://www.w3.org/2000/svg" xmlns:xlink="http://www.w3.org/1999/xlink">
<g id="graph0" class="graph" transform="scale(1 1) rotate(0) translate(4 544)">
<title>%3</title>
<polygon fill="white" stroke="transparent" points="-4,4 -4,-544 861,-544 861,4 -4,4"/>
<!-- [root] aws_eip.bar (expand) -->
<g id="node1" class="node">
<title>[root] aws_eip.bar (expand)</title>
<polygon fill="none" stroke="black" points="466,-396 365,-396 365,-360 466,-360 466,-396"/>
<text text-anchor="middle" x="415.5" y="-374.3" font-family="Times,serif" font-size="14.00">aws_eip.bar</text>
</g>
<!-- [root] aws_internet_gateway.gw (expand) -->
<g id="node3" class="node">
<title>[root] aws_internet_gateway.gw (expand)</title>
<polygon fill="none" stroke="black" points="331,-252 132,-252 132,-216 331,-216 331,-252"/>
<text text-anchor="middle" x="231.5" y="-230.3" font-family="Times,serif" font-size="14.00">aws_internet_gateway.gw</text>
</g>
<!-- [root] aws_eip.bar (expand)&#45;&gt;[root] aws_internet_gateway.gw (expand) -->
<g id="edge1" class="edge">
<title>[root] aws_eip.bar (expand)&#45;&gt;[root] aws_internet_gateway.gw (expand)</title>
<path fill="none" stroke="black" d="M402.77,-359.94C387.78,-340.69 361.37,-309.31 333.5,-288 317.72,-275.93 298.78,-265.23 281.53,-256.67"/>
<polygon fill="black" stroke="black" points="282.68,-253.33 272.16,-252.13 279.63,-259.64 282.68,-253.33"/>
</g>
<!-- [root] aws_network_interface.prod&#45;nic (expand) -->
<g id="node4" class="node">
<title>[root] aws_network_interface.prod&#45;nic (expand)</title>
<polygon fill="none" stroke="black" points="687,-324 444,-324 444,-288 687,-288 687,-324"/>
<text text-anchor="middle" x="565.5" y="-302.3" font-family="Times,serif" font-size="14.00">aws_network_interface.prod&#45;nic</text>
</g>
<!-- [root] aws_eip.bar (expand)&#45;&gt;[root] aws_network_interface.prod&#45;nic (expand) -->
<g id="edge2" class="edge">
<title>[root] aws_eip.bar (expand)&#45;&gt;[root] aws_network_interface.prod&#45;nic (expand)</title>
<path fill="none" stroke="black" d="M452.19,-359.88C472.52,-350.39 497.97,-338.51 519.6,-328.42"/>
<polygon fill="black" stroke="black" points="521.34,-331.47 528.93,-324.07 518.38,-325.13 521.34,-331.47"/>
</g>
<!-- [root] aws_instance.prod&#45;ec2 (expand) -->
<g id="node2" class="node">
<title>[root] aws_instance.prod&#45;ec2 (expand)</title>
<polygon fill="none" stroke="black" points="662.5,-396 484.5,-396 484.5,-360 662.5,-360 662.5,-396"/>
<text text-anchor="middle" x="573.5" y="-374.3" font-family="Times,serif" font-size="14.00">aws_instance.prod&#45;ec2</text>
</g>
<!-- [root] aws_instance.prod&#45;ec2 (expand)&#45;&gt;[root] aws_network_interface.prod&#45;nic (expand) -->
<g id="edge3" class="edge">
<title>[root] aws_instance.prod&#45;ec2 (expand)&#45;&gt;[root] aws_network_interface.prod&#45;nic (expand)</title>
<path fill="none" stroke="black" d="M571.52,-359.7C570.64,-351.98 569.58,-342.71 568.6,-334.11"/>
<polygon fill="black" stroke="black" points="572.07,-333.64 567.45,-324.1 565.11,-334.44 572.07,-333.64"/>
</g>
<!-- [root] aws_vpc.prod&#45;vpc (expand) -->
<g id="node9" class="node">
<title>[root] aws_vpc.prod&#45;vpc (expand)</title>
<polygon fill="none" stroke="black" points="516,-180 373,-180 373,-144 516,-144 516,-180"/>
<text text-anchor="middle" x="444.5" y="-158.3" font-family="Times,serif" font-size="14.00">aws_vpc.prod&#45;vpc</text>
</g>
<!-- [root] aws_internet_gateway.gw (expand)&#45;&gt;[root] aws_vpc.prod&#45;vpc (expand) -->
<g id="edge4" class="edge">
<title>[root] aws_internet_gateway.gw (expand)&#45;&gt;[root] aws_vpc.prod&#45;vpc (expand)</title>
<path fill="none" stroke="black" d="M283.33,-215.97C313.35,-206.1 351.32,-193.62 382.87,-183.25"/>
<polygon fill="black" stroke="black" points="384.03,-186.56 392.43,-180.11 381.84,-179.91 384.03,-186.56"/>
</g>
<!-- [root] aws_security_group.allow_http (expand) -->
<g id="node7" class="node">
<title>[root] aws_security_group.allow_http (expand)</title>
<polygon fill="none" stroke="black" points="794.5,-252 558.5,-252 558.5,-216 794.5,-216 794.5,-252"/>
<text text-anchor="middle" x="676.5" y="-230.3" font-family="Times,serif" font-size="14.00">aws_security_group.allow_http</text>
</g>
<!-- [root] aws_network_interface.prod&#45;nic (expand)&#45;&gt;[root] aws_security_group.allow_http (expand) -->
<g id="edge5" class="edge">
<title>[root] aws_network_interface.prod&#45;nic (expand)&#45;&gt;[root] aws_security_group.allow_http (expand)</title>
<path fill="none" stroke="black" d="M592.65,-287.88C607.03,-278.81 624.88,-267.55 640.41,-257.76"/>
<polygon fill="black" stroke="black" points="642.65,-260.48 649.24,-252.19 638.92,-254.56 642.65,-260.48"/>
</g>
<!-- [root] aws_subnet.prod&#45;subnet (expand) -->
<g id="node8" class="node">
<title>[root] aws_subnet.prod&#45;subnet (expand)</title>
<polygon fill="none" stroke="black" points="540,-252 349,-252 349,-216 540,-216 540,-252"/>
<text text-anchor="middle" x="444.5" y="-230.3" font-family="Times,serif" font-size="14.00">aws_subnet.prod&#45;subnet</text>
</g>
<!-- [root] aws_network_interface.prod&#45;nic (expand)&#45;&gt;[root] aws_subnet.prod&#45;subnet (expand) -->
<g id="edge6" class="edge">
<title>[root] aws_network_interface.prod&#45;nic (expand)&#45;&gt;[root] aws_subnet.prod&#45;subnet (expand)</title>
<path fill="none" stroke="black" d="M535.9,-287.88C519.93,-278.64 500.04,-267.13 482.89,-257.21"/>
<polygon fill="black" stroke="black" points="484.62,-254.17 474.21,-252.19 481.12,-260.23 484.62,-254.17"/>
</g>
<!-- [root] aws_route_table.prod&#45;rt (expand) -->
<g id="node5" class="node">
<title>[root] aws_route_table.prod&#45;rt (expand)</title>
<polygon fill="none" stroke="black" points="325,-324 138,-324 138,-288 325,-288 325,-324"/>
<text text-anchor="middle" x="231.5" y="-302.3" font-family="Times,serif" font-size="14.00">aws_route_table.prod&#45;rt</text>
</g>
<!-- [root] aws_route_table.prod&#45;rt (expand)&#45;&gt;[root] aws_internet_gateway.gw (expand) -->
<g id="edge7" class="edge">
<title>[root] aws_route_table.prod&#45;rt (expand)&#45;&gt;[root] aws_internet_gateway.gw (expand)</title>
<path fill="none" stroke="black" d="M231.5,-287.7C231.5,-279.98 231.5,-270.71 231.5,-262.11"/>
<polygon fill="black" stroke="black" points="235,-262.1 231.5,-252.1 228,-262.1 235,-262.1"/>
</g>
<!-- [root] aws_route_table_association.a (expand) -->
<g id="node6" class="node">
<title>[root] aws_route_table_association.a (expand)</title>
<polygon fill="none" stroke="black" points="347,-396 116,-396 116,-360 347,-360 347,-396"/>
<text text-anchor="middle" x="231.5" y="-374.3" font-family="Times,serif" font-size="14.00">aws_route_table_association.a</text>
</g>
<!-- [root] aws_route_table_association.a (expand)&#45;&gt;[root] aws_route_table.prod&#45;rt (expand) -->
<g id="edge8" class="edge">
<title>[root] aws_route_table_association.a (expand)&#45;&gt;[root] aws_route_table.prod&#45;rt (expand)</title>
<path fill="none" stroke="black" d="M231.5,-359.7C231.5,-351.98 231.5,-342.71 231.5,-334.11"/>
<polygon fill="black" stroke="black" points="235,-334.1 231.5,-324.1 228,-334.1 235,-334.1"/>
</g>
<!-- [root] aws_route_table_association.a (expand)&#45;&gt;[root] aws_subnet.prod&#45;subnet (expand) -->
<g id="edge9" class="edge">
<title>[root] aws_route_table_association.a (expand)&#45;&gt;[root] aws_subnet.prod&#45;subnet (expand)</title>
<path fill="none" stroke="black" d="M268.83,-359.8C288.58,-350.16 312.93,-337.4 333.5,-324 363.91,-304.18 395.98,-277.79 417.79,-258.9"/>
<polygon fill="black" stroke="black" points="420.11,-261.52 425.34,-252.31 415.5,-256.25 420.11,-261.52"/>
</g>
<!-- [root] aws_security_group.allow_http (expand)&#45;&gt;[root] aws_vpc.prod&#45;vpc (expand) -->
<g id="edge10" class="edge">
<title>[root] aws_security_group.allow_http (expand)&#45;&gt;[root] aws_vpc.prod&#45;vpc (expand)</title>
<path fill="none" stroke="black" d="M620.04,-215.97C587.2,-206.06 545.63,-193.51 511.19,-183.12"/>
<polygon fill="black" stroke="black" points="511.79,-179.65 501.21,-180.11 509.77,-186.35 511.79,-179.65"/>
</g>
<!-- [root] var.accessPort -->
<g id="node12" class="node">
<title>[root] var.accessPort</title>
<polygon fill="none" stroke="black" points="851,-180 738,-180 738,-144 857,-144 857,-174 851,-180"/>
<polyline fill="none" stroke="black" points="851,-180 851,-174 "/>
<polyline fill="none" stroke="black" points="857,-174 851,-174 "/>
<text text-anchor="middle" x="797.5" y="-158.3" font-family="Times,serif" font-size="14.00">var.accessPort</text>
</g>
<!-- [root] aws_security_group.allow_http (expand)&#45;&gt;[root] var.accessPort -->
<g id="edge11" class="edge">
<title>[root] aws_security_group.allow_http (expand)&#45;&gt;[root] var.accessPort</title>
<path fill="none" stroke="black" d="M706.1,-215.88C722.07,-206.64 741.96,-195.13 759.11,-185.21"/>
<polygon fill="black" stroke="black" points="760.88,-188.23 767.79,-180.19 757.38,-182.17 760.88,-188.23"/>
</g>
<!-- [root] var.client&#45;ip&#45;access -->
<g id="node14" class="node">
<title>[root] var.client&#45;ip&#45;access</title>
<polygon fill="none" stroke="black" points="713.5,-180 567.5,-180 567.5,-144 719.5,-144 719.5,-174 713.5,-180"/>
<polyline fill="none" stroke="black" points="713.5,-180 713.5,-174 "/>
<polyline fill="none" stroke="black" points="719.5,-174 713.5,-174 "/>
<text text-anchor="middle" x="643.5" y="-158.3" font-family="Times,serif" font-size="14.00">var.client&#45;ip&#45;access</text>
</g>
<!-- [root] aws_security_group.allow_http (expand)&#45;&gt;[root] var.client&#45;ip&#45;access -->
<g id="edge12" class="edge">
<title>[root] aws_security_group.allow_http (expand)&#45;&gt;[root] var.client&#45;ip&#45;access</title>
<path fill="none" stroke="black" d="M668.34,-215.7C664.59,-207.73 660.05,-198.1 655.88,-189.26"/>
<polygon fill="black" stroke="black" points="658.99,-187.66 651.56,-180.1 652.66,-190.64 658.99,-187.66"/>
</g>
<!-- [root] aws_subnet.prod&#45;subnet (expand)&#45;&gt;[root] aws_vpc.prod&#45;vpc (expand) -->
<g id="edge13" class="edge">
<title>[root] aws_subnet.prod&#45;subnet (expand)&#45;&gt;[root] aws_vpc.prod&#45;vpc (expand)</title>
<path fill="none" stroke="black" d="M444.5,-215.7C444.5,-207.98 444.5,-198.71 444.5,-190.11"/>
<polygon fill="black" stroke="black" points="448,-190.1 444.5,-180.1 441,-190.1 448,-190.1"/>
</g>
<!-- [root] provider[&quot;registry.terraform.io/hashicorp/aws&quot;] -->
<g id="node11" class="node">
<title>[root] provider[&quot;registry.terraform.io/hashicorp/aws&quot;]</title>
<polygon fill="none" stroke="black" points="444.5,-108 119.24,-90 444.5,-72 769.76,-90 444.5,-108"/>
<text text-anchor="middle" x="444.5" y="-86.3" font-family="Times,serif" font-size="14.00">provider[&quot;registry.terraform.io/hashicorp/aws&quot;]</text>
</g>
<!-- [root] aws_vpc.prod&#45;vpc (expand)&#45;&gt;[root] provider[&quot;registry.terraform.io/hashicorp/aws&quot;] -->
<g id="edge14" class="edge">
<title>[root] aws_vpc.prod&#45;vpc (expand)&#45;&gt;[root] provider[&quot;registry.terraform.io/hashicorp/aws&quot;]</title>
<path fill="none" stroke="black" d="M444.5,-143.7C444.5,-135.98 444.5,-126.71 444.5,-118.11"/>
<polygon fill="black" stroke="black" points="448,-118.1 444.5,-108.1 441,-118.1 448,-118.1"/>
</g>
<!-- [root] output.server_public_ip -->
<g id="node10" class="node">
<title>[root] output.server_public_ip</title>
<polygon fill="none" stroke="black" points="179,-468 0,-468 0,-432 185,-432 185,-462 179,-468"/>
<polyline fill="none" stroke="black" points="179,-468 179,-462 "/>
<polyline fill="none" stroke="black" points="185,-462 179,-462 "/>
<text text-anchor="middle" x="92.5" y="-446.3" font-family="Times,serif" font-size="14.00">output.server_public_ip</text>
</g>
<!-- [root] output.server_public_ip&#45;&gt;[root] aws_eip.bar (expand) -->
<g id="edge15" class="edge">
<title>[root] output.server_public_ip&#45;&gt;[root] aws_eip.bar (expand)</title>
<path fill="none" stroke="black" d="M185.16,-432.33C233.39,-423.2 293.49,-411.1 354.86,-396.31"/>
<polygon fill="black" stroke="black" points="355.83,-399.68 364.72,-393.92 354.18,-392.88 355.83,-399.68"/>
</g>
<!-- [root] var.access_key -->
<g id="node13" class="node">
<title>[root] var.access_key</title>
<polygon fill="none" stroke="black" points="430,-36 315,-36 315,0 436,0 436,-30 430,-36"/>
<polyline fill="none" stroke="black" points="430,-36 430,-30 "/>
<polyline fill="none" stroke="black" points="436,-30 430,-30 "/>
<text text-anchor="middle" x="375.5" y="-14.3" font-family="Times,serif" font-size="14.00">var.access_key</text>
</g>
<!-- [root] provider[&quot;registry.terraform.io/hashicorp/aws&quot;]&#45;&gt;[root] var.access_key -->
<g id="edge19" class="edge">
<title>[root] provider[&quot;registry.terraform.io/hashicorp/aws&quot;]&#45;&gt;[root] var.access_key</title>
<path fill="none" stroke="black" d="M428.5,-72.76C419.87,-64.01 409.05,-53.03 399.44,-43.28"/>
<polygon fill="black" stroke="black" points="401.89,-40.79 392.38,-36.12 396.91,-45.7 401.89,-40.79"/>
</g>
<!-- [root] var.secret_key -->
<g id="node15" class="node">
<title>[root] var.secret_key</title>
<polygon fill="none" stroke="black" points="567,-36 454,-36 454,0 573,0 573,-30 567,-36"/>
<polyline fill="none" stroke="black" points="567,-36 567,-30 "/>
<polyline fill="none" stroke="black" points="573,-30 567,-30 "/>
<text text-anchor="middle" x="513.5" y="-14.3" font-family="Times,serif" font-size="14.00">var.secret_key</text>
</g>
<!-- [root] provider[&quot;registry.terraform.io/hashicorp/aws&quot;]&#45;&gt;[root] var.secret_key -->
<g id="edge20" class="edge">
<title>[root] provider[&quot;registry.terraform.io/hashicorp/aws&quot;]&#45;&gt;[root] var.secret_key</title>
<path fill="none" stroke="black" d="M460.5,-72.76C469.13,-64.01 479.95,-53.03 489.56,-43.28"/>
<polygon fill="black" stroke="black" points="492.09,-45.7 496.62,-36.12 487.11,-40.79 492.09,-45.7"/>
</g>
<!-- [root] provider[&quot;registry.terraform.io/hashicorp/aws&quot;] (close) -->
<g id="node16" class="node">
<title>[root] provider[&quot;registry.terraform.io/hashicorp/aws&quot;] (close)</title>
<ellipse fill="none" stroke="black" cx="494.5" cy="-450" rx="291.65" ry="18"/>
<text text-anchor="middle" x="494.5" y="-446.3" font-family="Times,serif" font-size="14.00">[root] provider[&quot;registry.terraform.io/hashicorp/aws&quot;] (close)</text>
</g>
<!-- [root] provider[&quot;registry.terraform.io/hashicorp/aws&quot;] (close)&#45;&gt;[root] aws_eip.bar (expand) -->
<g id="edge16" class="edge">
<title>[root] provider[&quot;registry.terraform.io/hashicorp/aws&quot;] (close)&#45;&gt;[root] aws_eip.bar (expand)</title>
<path fill="none" stroke="black" d="M474.97,-431.7C465.12,-422.97 453.01,-412.24 442.3,-402.75"/>
<polygon fill="black" stroke="black" points="444.61,-400.12 434.8,-396.1 439.97,-405.36 444.61,-400.12"/>
</g>
<!-- [root] provider[&quot;registry.terraform.io/hashicorp/aws&quot;] (close)&#45;&gt;[root] aws_instance.prod&#45;ec2 (expand) -->
<g id="edge17" class="edge">
<title>[root] provider[&quot;registry.terraform.io/hashicorp/aws&quot;] (close)&#45;&gt;[root] aws_instance.prod&#45;ec2 (expand)</title>
<path fill="none" stroke="black" d="M514.03,-431.7C523.88,-422.97 535.99,-412.24 546.7,-402.75"/>
<polygon fill="black" stroke="black" points="549.03,-405.36 554.2,-396.1 544.39,-400.12 549.03,-405.36"/>
</g>
<!-- [root] provider[&quot;registry.terraform.io/hashicorp/aws&quot;] (close)&#45;&gt;[root] aws_route_table_association.a (expand) -->
<g id="edge18" class="edge">
<title>[root] provider[&quot;registry.terraform.io/hashicorp/aws&quot;] (close)&#45;&gt;[root] aws_route_table_association.a (expand)</title>
<path fill="none" stroke="black" d="M432.17,-432.41C394.14,-422.29 345.32,-409.3 305.36,-398.66"/>
<polygon fill="black" stroke="black" points="306.23,-395.27 295.67,-396.08 304.43,-402.03 306.23,-395.27"/>
</g>
<!-- [root] root -->
<g id="node17" class="node">
<title>[root] root</title>
<ellipse fill="none" stroke="black" cx="293.5" cy="-522" rx="58.49" ry="18"/>
<text text-anchor="middle" x="293.5" y="-518.3" font-family="Times,serif" font-size="14.00">[root] root</text>
</g>
<!-- [root] root&#45;&gt;[root] output.server_public_ip -->
<g id="edge21" class="edge">
<title>[root] root&#45;&gt;[root] output.server_public_ip</title>
<path fill="none" stroke="black" d="M256.16,-508C226.72,-497.74 185.1,-483.25 151.2,-471.44"/>
<polygon fill="black" stroke="black" points="152,-468.02 141.41,-468.03 149.7,-474.63 152,-468.02"/>
</g>
<!-- [root] root&#45;&gt;[root] provider[&quot;registry.terraform.io/hashicorp/aws&quot;] (close) -->
<g id="edge22" class="edge">
<title>[root] root&#45;&gt;[root] provider[&quot;registry.terraform.io/hashicorp/aws&quot;] (close)</title>
<path fill="none" stroke="black" d="M330.84,-508C360.49,-497.67 402.49,-483.04 436.51,-471.19"/>
<polygon fill="black" stroke="black" points="438.04,-474.37 446.34,-467.77 435.74,-467.76 438.04,-474.37"/>
</g>
</g>
</svg>
